<svg xmlns="http://www.w3.org/2000/svg" class="thumbnail-icon" viewBox="0 0 200 200">
  <path d="M0 100a100 100 0 1 1 200 0 100 100 0 0 1-200 0zm166.7-32.6c-8.6 0-17.8 6.1-20.6 14.4-1.7-10-7.5-14.4-17-14.4a23 23 0 0 0-17.2 8.8l-.2.3a29.2 29.2 0 0 0-3.1 5v-.2l-.5 1c-1.4-11.5-7.4-14.8-16.5-14.9h-.3c-8.6 0-17.8 6.1-20.6 14.4-1.7-10-7.5-14.4-17-14.4a24 24 0 0 0-20.5 14v-14h-17v65.2h17V88.3c0-4.9 5.8-11.1 10.8-11.1 6.1 0 9.8 3.7 9.8 11.3v44h17V88.8c0-5.4 5.7-11.5 10.7-11.5 6.1 0 10 3.7 10 11.3v44h17V88.4c0-4.9 6-11.1 11-11.1 6 0 9.7 3.7 9.7 11.3v44h17V88.8c0-5.4 5.7-11.5 10.7-11.5 6.1 0 10 3.7 10 11.3v44h16.9V88.2c0-16.5-6.5-20.7-17.1-20.7z" data-paper-data="{&quot;fillRule&quot;:&quot;nonzero&quot;,&quot;isIcon&quot;:&quot;true&quot;,&quot;iconType&quot;:&quot;icon&quot;,&quot;rawIconId&quot;:&quot;6c73925f-32e0-4df7-a64a-bf5ed262cbb9&quot;,&quot;selectedEffects&quot;:{&quot;container&quot;:&quot;circle_simple_filled&quot;,&quot;transformation&quot;:&quot;&quot;,&quot;pattern&quot;:&quot;&quot;},&quot;combineTerms&quot;:&quot;undefined&quot;,&quot;isDetailed&quot;:false,&quot;blockLetter&quot;:&quot;O&quot;,&quot;blockLetterId&quot;:0,&quot;relativeBoundsIconToContainer&quot;:{&quot;top&quot;:-4.383336988794134e-17,&quot;left&quot;:7.013339182070614e-16},&quot;widthRatioIconToContainer&quot;:0.8379317424958836,&quot;heightRatioIconToContainer&quot;:0.3258441216188772,&quot;bounds&quot;:{&quot;x&quot;:206.94844936150182,&quot;y&quot;:130.44282940034137,&quot;width&quot;:136.1031012769964,&quot;height&quot;:136.1031012769964},&quot;iconStyle&quot;:&quot;standalone&quot;}"/>
</svg>
