<svg xmlns="http://www.w3.org/2000/svg" id="svg46941" version="1.1" viewBox="0 0 24.33 17.29">
  <g id="layer1" transform="translate(-8.26 -9.56)">
    <g id="g50355" transform="scale(-1 1) rotate(-48.21 2.67 46.9)">
      <path id="color_path14-3" fill="#bbb" fill-opacity=".45" stroke-width=".26" d="M17.07 13.78H15.5a1.88 1.88 0 000 3.75h3.61c.5-.5.76-1.17.73-1.87 0-1.22-.7-2.22-1.55-2.22h-.4c-.3.01-.6.13-.82.34z" opacity="1"/>
      <path id="path18-3" fill="#d1d1d1" stroke-width=".26" d="M17.07 13.78h.82c.72 0 1.32.84 1.32 1.88 0 1.03-.59 1.87-1.32 1.87h1.22c.5-.5.76-1.17.73-1.87 0-1.22-.69-2.22-1.55-2.22h-.4c-.3.01-.6.13-.82.34z" opacity=".9"/>
      <ellipse id="ellipse24-3" cx="17.89" cy="15.66" fill="#e6e6e6" stroke-width=".26" opacity=".25" rx="1.31" ry="1.88"/>
      <path id="polygon28-3" fill="#666" d="M49.69 44.17h6.46v-.99h-3.01v-2.82l-4.29-4v6.61z" class="st9" opacity=".22" transform="matrix(.26458 0 0 .26458 3.03 5.26)"/>
      <path id="polygon30-3" fill="#666" d="M48.57 35.59l.51-.43 4.06 3.8v-3.65h3.01v-.91h-7.58z" class="st9" opacity=".22" transform="matrix(.26458 0 0 .26458 3.03 5.26)"/>
      <path id="path34-3" fill="#fff" stroke-width=".26" d="M14.62 14.78l-.07-.38c-.3.23-.52.56-.6.94l.3-.07a1 1 0 01.37-.49z" class="st11" opacity=".5"/>
      <path id="path36-3" fill="#fff" stroke-width=".26" d="M18.9 17.33h.4c.15-.19.27-.4.35-.61h-.4c-.08.22-.2.42-.35.61z" class="st11" opacity=".5"/>
      <path id="path38-3" fill="#fff" stroke-width=".26" d="M18.98 14.6l.08.21.01.05c.05.16.08.32.1.48v.06l.02.26v.13c-.01.3-.08.6-.2.87H15.5a1 1 0 01-.88-.55h-.02l-.4.34c.28.46.77.74 1.3.74h3.15a1.6 1.6 0 01-.14.13l.18.08c.44-.47.67-1.1.64-1.74.01-.41-.08-.82-.26-1.2l-.1.14z" class="st11" opacity=".5"/>
    </g>
    <path id="path50357" fill="#9264ba" fill-opacity=".93" fill-rule="evenodd" stroke="none" stroke-opacity="1" stroke-width=".26" d="M11.4 26.85l4.08-5.96 8.01-.07 3.77 6.03z"/>
    <path id="path50359" fill="#f70000" fill-opacity=".5" fill-rule="evenodd" stroke="none" stroke-opacity="1" stroke-width=".28" d="M23.13 17.42l2.3.82-2.63-2.96-2.17-.68z"/>
    <path id="path50361" fill="#2ef700" fill-opacity=".5" fill-rule="evenodd" stroke="none" stroke-opacity="1" stroke-width=".26" d="M25.44 18.24l2.14 1.13-2.13-3.1-2.03-.98z"/>
    <path id="path50363" fill="#0014f7" fill-opacity=".5" fill-rule="evenodd" stroke="none" stroke-opacity="1" stroke-width=".26" d="M27.58 19.37l1.99 1.4L28 17.63l-1.9-1.26z"/>
    <path id="path50371" fill="#e1e1e1" fill-opacity=".65" fill-rule="evenodd" stroke="none" stroke-opacity="1" stroke-width=".26" d="M13.51 18.6l.75-.5 3.83 4 .4-.68.42 2.27-2.5-.76.9-.34z"/>
    <path id="path50373" fill="#9264b9" fill-opacity=".49" fill-rule="evenodd" stroke="#6d4292" stroke-opacity=".14" stroke-width=".25" d="M19.74 23.27l.87.29 2.29-4.5.61.52-.38-2.16-2.1 1.25.96.11z"/>
    <g id="g50382" fill-rule="evenodd" stroke="none" stroke-opacity="1" stroke-width=".26" transform="rotate(-6.64 34.37 12.24)">
      <path id="path50365" fill="#9f9a9a" fill-opacity="1" d="M24.18 14.22l2.14 1.14-2.13-3.1-2.02-.99z"/>
      <path id="path50375" fill="#7f7777" fill-opacity=".99" d="M22.17 11.27l.54-.55 2.05.96-.57.58z"/>
      <path id="path50377" fill="#665f5f" fill-opacity=".99" d="M24.2 12.26l.56-.58 2.1 3.15-.54.53z"/>
    </g>
    <path id="path50408" fill="#b96469" fill-opacity=".49" fill-rule="evenodd" stroke="#924257" stroke-opacity=".14" stroke-width=".12" d="M23.01 17.19l.4.13 1.07-2.03.29.23-.18-.97-.98.56.45.05z"/>
    <g id="g50390" fill-rule="evenodd" stroke="none" stroke-opacity="1" stroke-width=".26" transform="translate(3.05 2.4)">
      <path id="path50384" fill="#9f9a9a" fill-opacity="1" d="M24.18 14.22l2.14 1.14-2.13-3.1-2.02-.99z"/>
      <path id="path50386" fill="#7f7777" fill-opacity=".99" d="M22.17 11.27l.54-.55 2.05.96-.57.58z"/>
      <path id="path50388" fill="#665f5f" fill-opacity=".99" d="M24.2 12.26l.56-.58 2.1 3.15-.54.53z"/>
    </g>
    <g id="g50398" fill-rule="evenodd" stroke="none" stroke-opacity="1" stroke-width=".26" transform="rotate(7.28 -3.37 59.53)">
      <path id="path50392" fill="#9f9a9a" fill-opacity="1" d="M24.18 14.22l2.14 1.14-2.13-3.1-2.02-.99z"/>
      <path id="path50394" fill="#7f7777" fill-opacity=".99" d="M22.17 11.27l.54-.55 2.05.96-.57.58z"/>
      <path id="path50396" fill="#665f5f" fill-opacity=".99" d="M24.2 12.26l.56-.58 2.1 3.15-.54.53z"/>
    </g>
    <path id="path50400" fill="#9264b9" fill-opacity=".49" fill-rule="evenodd" stroke="#6d4292" stroke-opacity=".14" stroke-width=".25" d="M21.08 23.74l.7.48 4.03-3.48.36.63.55-2.05-2.5.6.85.34z"/>
    <path id="path50402" fill="#9264b9" fill-opacity=".49" fill-rule="evenodd" stroke="#6d4292" stroke-opacity=".14" stroke-width=".25" d="M20.63 23.53l.83.34 2.89-4.14.54.56-.08-2.12-2.26 1.03.94.19z"/>
    <path id="path50404" fill="#e1e1e1" fill-opacity=".65" fill-rule="evenodd" stroke="none" stroke-opacity="1" stroke-width=".26" d="M13.46 18.54l.8-.44 3.37 4.27.49-.65.15 2.3-2.4-.95.93-.27z"/>
    <path id="path50406" fill="#e1e1e1" fill-opacity=".65" fill-rule="evenodd" stroke="none" stroke-opacity="1" stroke-width=".26" d="M13.56 18.64l.7-.54 4.19 3.74.34-.7.62 2.25-2.56-.61.86-.4z"/>
    <path id="path50410" fill="#64b966" fill-opacity=".49" fill-rule="evenodd" stroke="#439242" stroke-opacity=".14" stroke-width=".12" d="M25.02 17.76l.38.2 1.4-1.83.23.28v-.99l-1.07.4.44.12z"/>
    <path id="path50412" fill="#6468b9" fill-opacity=".49" fill-rule="evenodd" stroke="#434292" stroke-opacity=".14" stroke-width=".12" d="M27.67 18.69l.33.26 1.72-1.51.18.32.18-.98-1.11.18.4.2z"/>
    <ellipse id="path50414" cx="24.33" cy="11.22" fill="#f1d5d5" fill-opacity="1" stroke="#0b0b18" stroke-dasharray="none" stroke-linecap="round" stroke-linejoin="round" stroke-miterlimit="4" stroke-opacity="1" stroke-width=".13" opacity="1" rx="1.73" ry="1.59"/>
    <path id="path50418" fill="none" fill-rule="evenodd" stroke="#000" stroke-dasharray="none" stroke-linecap="round" stroke-linejoin="miter" stroke-miterlimit="4" stroke-opacity="1" stroke-width=".05" d="M24.32 9.9l.01.51" opacity=".97"/>
    <path id="path50420" fill="none" fill-rule="evenodd" stroke="#000" stroke-dasharray="none" stroke-linecap="round" stroke-linejoin="miter" stroke-miterlimit="4" stroke-opacity="1" stroke-width=".05" d="M24.98 10.06l-.12.5" opacity=".97"/>
    <path id="path50422" fill="none" fill-rule="evenodd" stroke="#000" stroke-dasharray="none" stroke-linecap="round" stroke-linejoin="miter" stroke-miterlimit="4" stroke-opacity="1" stroke-width=".05" d="M23.68 10.04l.13.5" opacity=".97"/>
    <path id="path50424" fill="none" fill-rule="evenodd" stroke="#000" stroke-dasharray="none" stroke-linecap="round" stroke-linejoin="miter" stroke-miterlimit="4" stroke-opacity="1" stroke-width=".05" d="M23.13 10.46l.27.44" opacity=".97"/>
    <path id="path50426" fill="none" fill-rule="evenodd" stroke="#000" stroke-dasharray="none" stroke-linecap="round" stroke-linejoin="miter" stroke-miterlimit="4" stroke-opacity="1" stroke-width=".05" d="M25.52 10.46l-.27.44" opacity=".97"/>
    <path id="path50416" fill="#e10000" fill-opacity="1" fill-rule="evenodd" stroke="none" stroke-opacity="1" stroke-width=".26" d="M24.16 12.06l1.34-1.58-.88 1.88c-.14.3-.7 0-.46-.3z"/>
    <ellipse id="ellipse50437" cx="27.69" cy="12.35" fill="#d6f1d5" fill-opacity="1" stroke="#0b0b18" stroke-dasharray="none" stroke-linecap="round" stroke-linejoin="round" stroke-miterlimit="4" stroke-opacity="1" stroke-width=".13" opacity="1" rx="1.73" ry="1.59"/>
    <path id="path50439" fill="none" fill-rule="evenodd" stroke="#000" stroke-dasharray="none" stroke-linecap="round" stroke-linejoin="miter" stroke-miterlimit="4" stroke-opacity="1" stroke-width=".05" d="M27.68 11.02v.52" opacity=".97"/>
    <path id="path50441" fill="none" fill-rule="evenodd" stroke="#000" stroke-dasharray="none" stroke-linecap="round" stroke-linejoin="miter" stroke-miterlimit="4" stroke-opacity="1" stroke-width=".05" d="M28.33 11.19l-.12.5" opacity=".97"/>
    <path id="path50443" fill="none" fill-rule="evenodd" stroke="#000" stroke-dasharray="none" stroke-linecap="round" stroke-linejoin="miter" stroke-miterlimit="4" stroke-opacity="1" stroke-width=".05" d="M27.04 11.17l.13.5" opacity=".97"/>
    <path id="path50445" fill="none" fill-rule="evenodd" stroke="#000" stroke-dasharray="none" stroke-linecap="round" stroke-linejoin="miter" stroke-miterlimit="4" stroke-opacity="1" stroke-width=".05" d="M26.49 11.59l.27.44" opacity=".97"/>
    <path id="path50447" fill="none" fill-rule="evenodd" stroke="#000" stroke-dasharray="none" stroke-linecap="round" stroke-linejoin="miter" stroke-miterlimit="4" stroke-opacity="1" stroke-width=".05" d="M28.88 11.59l-.28.44" opacity=".97"/>
    <path id="path50449" fill="#e10000" fill-opacity="1" fill-rule="evenodd" stroke="none" stroke-opacity="1" stroke-width=".26" d="M27.5 13.44l-.76-1.93 1.23 1.67c.2.27-.33.62-.47.26z"/>
    <ellipse id="ellipse50453" cx="30.79" cy="14" fill="#d7d5f1" fill-opacity="1" stroke="#0b0b18" stroke-dasharray="none" stroke-linecap="round" stroke-linejoin="round" stroke-miterlimit="4" stroke-opacity="1" stroke-width=".13" opacity="1" rx="1.73" ry="1.59"/>
    <path id="path50455" fill="none" fill-rule="evenodd" stroke="#000" stroke-dasharray="none" stroke-linecap="round" stroke-linejoin="miter" stroke-miterlimit="4" stroke-opacity="1" stroke-width=".05" d="M30.78 12.68l.01.52" opacity=".97"/>
    <path id="path50457" fill="none" fill-rule="evenodd" stroke="#000" stroke-dasharray="none" stroke-linecap="round" stroke-linejoin="miter" stroke-miterlimit="4" stroke-opacity="1" stroke-width=".05" d="M31.44 12.84l-.12.51" opacity=".97"/>
    <path id="path50459" fill="none" fill-rule="evenodd" stroke="#000" stroke-dasharray="none" stroke-linecap="round" stroke-linejoin="miter" stroke-miterlimit="4" stroke-opacity="1" stroke-width=".05" d="M30.14 12.83l.13.5" opacity=".97"/>
    <path id="path50461" fill="none" fill-rule="evenodd" stroke="#000" stroke-dasharray="none" stroke-linecap="round" stroke-linejoin="miter" stroke-miterlimit="4" stroke-opacity="1" stroke-width=".05" d="M29.6 13.25l.26.44" opacity=".97"/>
    <path id="path50463" fill="none" fill-rule="evenodd" stroke="#000" stroke-dasharray="none" stroke-linecap="round" stroke-linejoin="miter" stroke-miterlimit="4" stroke-opacity="1" stroke-width=".05" d="M31.98 13.25l-.27.44" opacity=".97"/>
    <path id="path50465" fill="#e10000" fill-opacity="1" fill-rule="evenodd" stroke="none" stroke-opacity="1" stroke-width=".26" d="M30.58 14.93l.66-1.97-.12 2.08c-.02.33-.66.26-.54-.1z"/>
  </g>
</svg>